<svg xmlns="http://www.w3.org/2000/svg" xmlns:xlink="http://www.w3.org/1999/xlink" width="2000" zoomAndPan="magnify" viewBox="0 0 1500 1499.999933" height="2000" preserveAspectRatio="xMidYMid meet" version="1.0"><defs><g/><clipPath id="be615b5fad"><rect x="0" width="1066" y="0" height="744"/></clipPath></defs><g transform="matrix(1, 0, 0, 1, 217, 378)"><g clip-path="url(#be615b5fad)"><g fill="#ffffff" fill-opacity="1"><g transform="translate(0.589971, 596.508498)"><g><path d="M 235.78125 11.703125 C 204.1875 11.703125 176.003906 6.046875 151.234375 -5.265625 C 126.472656 -16.578125 105.507812 -32.273438 88.34375 -52.359375 C 71.1875 -72.453125 58.023438 -95.757812 48.859375 -122.28125 C 39.691406 -148.800781 35.109375 -177.078125 35.109375 -207.109375 C 35.109375 -237.140625 39.691406 -265.414062 48.859375 -291.9375 C 58.023438 -318.46875 71.1875 -341.773438 88.34375 -361.859375 C 105.507812 -381.941406 126.472656 -397.640625 151.234375 -408.953125 C 176.003906 -420.265625 204.1875 -425.921875 235.78125 -425.921875 C 266.59375 -425.921875 292.429688 -422.992188 313.296875 -417.140625 C 334.171875 -411.296875 353.769531 -402.523438 372.09375 -390.828125 L 372.09375 -422.421875 C 372.09375 -461.035156 371.117188 -491.75 369.171875 -514.5625 C 367.222656 -537.375 362.445312 -553.851562 354.84375 -564 C 347.238281 -574.144531 335.050781 -579.21875 318.28125 -579.21875 L 318.28125 -585.0625 L 422.421875 -585.0625 L 422.421875 -162.640625 C 422.421875 -124.421875 423.394531 -93.804688 425.34375 -70.796875 C 427.289062 -47.785156 432.066406 -31.207031 439.671875 -21.0625 C 447.273438 -10.914062 459.460938 -5.84375 476.234375 -5.84375 L 476.234375 0 L 372.09375 0 L 372.09375 -46.21875 C 358.050781 -29.445312 338.9375 -15.597656 314.75 -4.671875 C 290.570312 6.242188 264.25 11.703125 235.78125 11.703125 Z M 235.78125 -418.90625 C 205.75 -418.90625 179.320312 -410.222656 156.5 -392.859375 C 133.6875 -375.503906 116.035156 -350.929688 103.546875 -319.140625 C 91.066406 -287.359375 84.828125 -250.015625 84.828125 -207.109375 C 84.828125 -164.203125 91.066406 -126.851562 103.546875 -95.0625 C 116.035156 -63.28125 133.6875 -38.707031 156.5 -21.34375 C 179.320312 -3.988281 205.75 4.6875 235.78125 4.6875 C 251.769531 4.6875 267.757812 1.957031 283.75 -3.5 C 299.75 -8.96875 314.378906 -16.675781 327.640625 -26.625 C 340.898438 -36.570312 351.625 -48.175781 359.8125 -61.4375 C 368 -74.695312 372.09375 -89.125 372.09375 -104.71875 L 372.09375 -344.609375 C 366.25 -353.578125 357.570312 -363.910156 346.0625 -375.609375 C 334.5625 -387.304688 319.835938 -397.445312 301.890625 -406.03125 C 283.953125 -414.613281 261.914062 -418.90625 235.78125 -418.90625 Z M 235.78125 -418.90625 "/></g></g></g><g fill="#ffffff" fill-opacity="1"><g transform="translate(488.533446, 596.508498)"><g><path d="M 0 -408.375 L 0 -414.21875 L 71.96875 -414.21875 C 85.226562 -414.21875 95.851562 -409.242188 103.84375 -399.296875 C 111.84375 -389.359375 117.597656 -378.734375 121.109375 -367.421875 C 128.910156 -342.453125 136.125 -318.945312 142.75 -296.90625 C 149.382812 -274.875 155.921875 -253.128906 162.359375 -231.671875 C 168.796875 -210.222656 175.71875 -187.703125 183.125 -164.109375 C 190.53125 -140.515625 198.722656 -114.476562 207.703125 -86 C 213.160156 -69.625 219.492188 -57.335938 226.703125 -49.140625 C 233.921875 -40.953125 241.820312 -36.273438 250.40625 -35.109375 C 265.226562 -81.910156 278.976562 -125.394531 291.65625 -165.5625 C 304.332031 -205.738281 316.128906 -244.359375 327.046875 -281.421875 C 330.554688 -293.117188 333.382812 -306.179688 335.53125 -320.609375 C 337.675781 -335.046875 338.066406 -348.988281 336.703125 -362.4375 C 335.335938 -375.894531 330.851562 -386.914062 323.25 -395.5 C 315.644531 -404.082031 303.648438 -408.375 287.265625 -408.375 L 274.390625 -408.375 L 274.390625 -414.21875 L 428.265625 -414.21875 L 428.265625 -408.375 L 418.3125 -408.375 C 408.175781 -408.375 398.816406 -404.179688 390.234375 -395.796875 C 381.648438 -387.410156 373.945312 -376.972656 367.125 -364.484375 C 360.300781 -352.003906 354.453125 -339.425781 349.578125 -326.75 C 344.703125 -314.082031 340.898438 -303.257812 338.171875 -294.28125 C 323.734375 -248.257812 309.003906 -200.675781 293.984375 -151.53125 C 278.972656 -102.382812 261.910156 -47.972656 242.796875 11.703125 C 242.796875 11.703125 239.96875 11.601562 234.3125 11.40625 C 228.65625 11.207031 221.242188 8.671875 212.078125 3.796875 C 202.921875 -1.078125 193.367188 -10.4375 183.421875 -24.28125 C 173.472656 -38.125 164.015625 -58.695312 155.046875 -86 C 144.898438 -118.375 135.726562 -147.628906 127.53125 -173.765625 C 119.34375 -199.898438 111.640625 -225.054688 104.421875 -249.234375 C 97.210938 -273.421875 89.515625 -298.578125 81.328125 -324.703125 C 77.816406 -336.796875 73.523438 -349.273438 68.453125 -362.140625 C 63.378906 -375.015625 56.550781 -385.9375 47.96875 -394.90625 C 39.394531 -403.882812 28.085938 -408.375 14.046875 -408.375 Z M 0 -408.375 "/></g></g></g><g fill="#ffffff" fill-opacity="1"><g transform="translate(916.800285, 596.508498)"><g><path d="M 35.109375 -39.203125 C 35.109375 -50.117188 38.910156 -59.378906 46.515625 -66.984375 C 54.117188 -74.585938 63.378906 -78.390625 74.296875 -78.390625 C 85.222656 -78.390625 94.488281 -74.585938 102.09375 -66.984375 C 109.695312 -59.378906 113.5 -50.117188 113.5 -39.203125 C 113.5 -28.273438 109.695312 -19.007812 102.09375 -11.40625 C 94.488281 -3.800781 85.222656 0 74.296875 0 C 63.378906 0 54.117188 -3.800781 46.515625 -11.40625 C 38.910156 -19.007812 35.109375 -28.273438 35.109375 -39.203125 Z M 35.109375 -39.203125 "/></g></g></g></g></g></svg>